<svg width="20" height="20" viewBox="0 0 20 20" fill="none" xmlns="http://www.w3.org/2000/svg">
<path d="M11.4639 12.7998C13.9673 12.7998 16 14.8325 16 17.3359V19.0967C16 19.595 15.595 20 15.0967 20H10.9189C8.86648 20 7.2003 18.3337 7.2002 16.2812V13.6719C7.20041 13.1906 7.59099 12.7998 8.07227 12.7998H11.4639ZM6.32812 7.2002C6.80936 7.20041 7.20018 7.59099 7.2002 8.07227V11.4639C7.2002 13.9673 5.16751 16 2.66406 16H0.90332C0.404995 16 0 15.595 0 15.0967V10.9189C1.58565e-05 8.86648 1.6663 7.2003 3.71875 7.2002H6.32812ZM19.0967 4C19.595 4 20 4.40502 20 4.90332V9.08105C20 11.1335 18.3337 12.7997 16.2812 12.7998H13.6719C13.1906 12.7996 12.7998 12.409 12.7998 11.9277V8.53613C12.7998 6.03265 14.8325 4.00003 17.3359 4H19.0967ZM9.08105 0C11.1335 1.61918e-05 12.7997 1.6663 12.7998 3.71875V6.32812C12.7996 6.80936 12.409 7.20019 11.9277 7.2002H8.53613C6.03265 7.2002 4.00003 5.16751 4 2.66406V0.90332C4 0.40502 4.40502 0 4.90332 0H9.08105Z" fill="#171717"/>
</svg>
