<svg width="48" height="48" viewBox="0 0 48 48" fill="none" xmlns="http://www.w3.org/2000/svg">
<path d="M22 28H26C27.0609 28 28.0783 27.5786 28.8284 26.8284C29.5786 26.0783 30 25.0609 30 24C30 22.9391 29.5786 21.9217 28.8284 21.1716C28.0783 20.4214 27.0609 20 26 20H20C18.8 20 17.8 20.4 17.2 21.2L6 32" stroke="#0EA5E9" stroke-width="1.5" stroke-linecap="round" stroke-linejoin="round"/>
<path d="M14 40L17.2 37.2C17.8 36.4 18.8 36 20 36H28C30.2 36 32.2 35.2 33.6 33.6L42.8 24.8C43.5718 24.0706 44.0222 23.0646 44.0522 22.0031C44.0822 20.9417 43.6893 19.9118 42.96 19.14C42.2307 18.3682 41.2246 17.9178 40.1631 17.8878C39.1017 17.8578 38.0718 18.2506 37.3 18.98L28.9 26.78" stroke="#0EA5E9" stroke-width="1.5" stroke-linecap="round" stroke-linejoin="round"/>
<path d="M4 30L16 42" stroke="#0EA5E9" stroke-width="1.5" stroke-linecap="round" stroke-linejoin="round"/>
<path d="M38.9998 17C40.3998 15.6 41.9998 13.8 41.9998 11.6C42.1396 10.3779 41.8626 9.14431 41.2137 8.09928C40.5648 7.05424 39.582 6.25895 38.4246 5.84229C37.2672 5.42562 36.003 5.412 34.8369 5.80363C33.6708 6.19526 32.6711 6.96919 31.9998 8C31.2859 7.04917 30.2859 6.35225 29.1467 6.01157C28.0075 5.67089 26.7891 5.70438 25.6704 6.10713C24.5516 6.50988 23.5915 7.26067 22.9308 8.24929C22.2702 9.23791 21.9439 10.4123 21.9998 11.6C21.9998 14 23.5998 15.6 24.9998 17.2L31.9998 24L38.9998 17Z" stroke="#0EA5E9" stroke-width="1.5" stroke-linecap="round" stroke-linejoin="round"/>
</svg>
