<svg width="442" height="88" viewBox="0 0 442 88" fill="none" xmlns="http://www.w3.org/2000/svg">
<path d="M37.9367 2.08377H58.8905C60.8481 2.08377 62.4349 3.67056 62.4349 5.62823V27.4041C62.4349 28.9721 61.893 30.8049 58.2727 30.8049H39.1177C31.2179 30.8049 30.9302 35.8783 30.9294 42.6991H50.0387C51.9964 42.6991 53.5831 44.2859 53.5831 46.2436V61.9141C53.5831 63.8718 51.9964 65.4586 50.0387 65.4586H31.073C30.9935 65.4586 30.9294 65.5231 30.9294 65.6022V81.5571C30.9294 83.5147 29.3426 85.1015 27.385 85.1015H3.54446C1.58679 85.1015 0 83.5147 0 81.5571V40.408C0 19.4568 16.9847 2.08377 37.9367 2.08377Z" fill="#F20CB8"/>
<path d="M234.953 82.6643L204.613 7.85939C203.539 5.07752 205.592 2.08377 208.574 2.08377H232.679C234.538 2.08377 236.18 3.29218 236.733 5.06669L251.003 46.2532C251.255 47.0599 252.397 47.0599 252.648 46.2532L265.869 5.06669C266.422 3.29259 268.065 2.08377 269.923 2.08377H294.03C297.012 2.08377 299.065 5.0771 297.991 7.85939L268.698 82.6643C268.066 84.3015 266.492 85.3813 264.737 85.3813H238.914C237.159 85.3813 235.585 84.3015 234.953 82.6643Z" fill="#F20CB8"/>
<path d="M218.193 79.621L188.078 4.82277C187.609 3.58314 186.175 2.08377 184.129 2.08377H158.291C155.875 2.08377 154.667 3.96693 154.342 4.82277L128.768 73.549L126.412 79.621C125.351 82.4021 127.389 85.3958 130.382 85.3958H154.48C156.348 85.3958 157.982 84.1858 158.534 82.4233L161.517 72.8435H183.081L186.07 82.4233C186.622 84.1853 188.258 85.3958 190.126 85.3958H214.223C217.195 85.3958 219.254 82.4021 218.193 79.621ZM165.715 56.1323L171.485 40.8959C171.718 40.0892 172.865 40.0892 173.12 40.8959L178.89 56.1323H165.715Z" fill="#F20CB8"/>
<path d="M112.17 64.2219C107.522 64.2219 107.154 61.9999 107.154 58.9204V2.69068C107.154 2.35559 106.882 2.08377 106.547 2.08377H81.0347C76.9433 2.08377 73.6261 5.40053 73.6261 9.49238V64.9212C73.6261 88.6202 93.7798 87.4147 98.6234 87.4147C103.216 87.4147 110.023 86.7212 112.114 86.3441C112.322 86.3066 112.492 86.163 112.569 85.9653L120.964 63.7449C121.135 63.3024 120.757 62.8432 120.29 62.929C117.477 63.7909 114.771 64.2219 112.17 64.2219H112.17Z" fill="#F20CB8"/>
<path d="M332.482 2.08377H314.076C309.964 2.08377 306.63 5.41768 306.63 9.53026V77.884C306.63 81.9966 309.964 85.3305 314.076 85.3305H332.482C336.595 85.3305 339.929 81.9966 339.929 77.884V9.53026C339.929 5.41768 336.595 2.08377 332.482 2.08377Z" fill="#F20CB8"/>
<path d="M395.587 0C369.954 0 349.174 19.5676 349.174 43.709C349.174 67.8505 369.954 87.4147 395.587 87.4147C421.22 87.4147 442 67.8471 442 43.709C442 19.5709 421.22 0 395.587 0ZM395.587 57.3848C387.566 57.3848 381.06 51.2621 381.06 43.709C381.06 36.156 387.566 30.0299 395.587 30.0299C403.608 30.0299 410.11 36.1526 410.11 43.709C410.11 51.2654 403.608 57.3848 395.587 57.3848Z" fill="#F20CB8"/>
</svg>
