<svg width="48" height="48" viewBox="0 0 48 48" fill="none" xmlns="http://www.w3.org/2000/svg">
<path d="M36 16C36 23.226 28.262 30.858 25.214 33.59C24.8653 33.8563 24.4387 34.0006 24 34.0006C23.5613 34.0006 23.1347 33.8563 22.786 33.59C19.74 30.858 12 23.226 12 16C12 12.8174 13.2643 9.76516 15.5147 7.51472C17.7652 5.26428 20.8174 4 24 4C27.1826 4 30.2348 5.26428 32.4853 7.51472C34.7357 9.76516 36 12.8174 36 16Z" stroke="#0EA5E9" stroke-width="1.5" stroke-linecap="round" stroke-linejoin="round"/>
<path d="M24 20C26.2091 20 28 18.2091 28 16C28 13.7909 26.2091 12 24 12C21.7909 12 20 13.7909 20 16C20 18.2091 21.7909 20 24 20Z" stroke="#0EA5E9" stroke-width="1.5" stroke-linecap="round" stroke-linejoin="round"/>
<path d="M17.4279 28H10.0079C9.58854 28.0002 9.17986 28.1322 8.83963 28.3773C8.49939 28.6224 8.24481 28.9683 8.11188 29.366L4.10388 41.366C4.0034 41.6666 3.97581 41.9868 4.02339 42.3002C4.07097 42.6136 4.19235 42.9112 4.37752 43.1684C4.5627 43.4257 4.80637 43.6352 5.08844 43.7798C5.37051 43.9244 5.68291 43.9999 5.99988 44H41.9999C42.3166 43.9998 42.6288 43.9243 42.9106 43.7798C43.1925 43.6353 43.436 43.426 43.6212 43.169C43.8063 42.912 43.9277 42.6147 43.9755 42.3016C44.0233 41.9885 43.996 41.6685 43.8959 41.368L39.8959 29.368C39.7632 28.9696 39.5084 28.6231 39.1678 28.3775C38.8271 28.132 38.4178 27.9999 37.9979 28H30.5739" stroke="#0EA5E9" stroke-width="1.5" stroke-linecap="round" stroke-linejoin="round"/>
</svg>
