<svg width="100" height="100" viewBox="0 0 100 100" fill="none" xmlns="http://www.w3.org/2000/svg">
<path d="M24.5144 0H45.4051C55.668 0 64 8.332 64 18.5947V31.6386C64 34.0457 62.0458 36 59.6386 36H42.68C30.1625 36 20 25.8374 20 13.32V4.51438C20 2.02288 22.0229 0 24.5144 0Z" fill="#F20CB8"/>
<path d="M0 75.4855L0 54.5947C0 44.332 8.332 36 18.5947 36H31.6386C34.0458 36 36 37.9542 36 40.3614V57.32C36 69.8375 25.8374 80 13.32 80H4.51437C2.02275 80 0 77.977 0 75.4855Z" fill="#F20CB8"/>
<path d="M100 24.5145V45.4053C100 55.668 91.668 64 81.4053 64H68.3614C65.9542 64 64 62.0457 64 59.6386V42.68C64 30.1625 74.1626 20 86.68 20H95.4856C97.9772 20 100 22.023 100 24.5145Z" fill="#F20CB8"/>
<path d="M75.4855 100H54.5947C44.332 100 36 91.668 36 81.4053L36 68.3614C36 65.9542 37.9543 64 40.3614 64L57.32 64C69.8375 64 80 74.1626 80 86.68V95.4856C80 97.9773 77.977 100 75.4855 100Z" fill="#F20CB8"/>
</svg>
